<svg width="43" height="43" viewBox="0 0 43 43" fill="none" xmlns="http://www.w3.org/2000/svg">
<path d="M24.452 33.5109H18.4986C17.9557 33.5109 17.5182 33.0702 17.5182 32.5305V31.8415C17.5247 31.2491 17.4956 30.8331 17.4333 30.6009C17.099 29.3765 16.2142 28.3499 15.3575 27.3544C15.0747 27.0287 14.8081 26.718 14.563 26.4052C13.33 24.8368 12.6743 22.9577 12.6743 20.9646C12.6743 16.0992 16.6346 12.1421 21.5 12.1421C26.3644 12.1421 30.3236 16.0992 30.3236 20.9646C30.3236 22.9587 29.6711 24.84 28.4348 26.4073C28.2188 26.6847 27.9694 26.9749 27.7092 27.2813C26.832 28.3133 25.8527 29.4646 25.5151 30.6805C25.456 30.8976 25.427 31.2878 25.4313 31.8339V32.5284C25.4313 33.0702 24.9938 33.5109 24.452 33.5109ZM19.4812 31.548H23.4716C23.4823 30.7847 23.5565 30.4085 23.6242 30.1634C24.0789 28.5262 25.2055 27.1964 26.1999 26.0289C26.4611 25.7215 26.6901 25.4527 26.8933 25.1969C27.8533 23.9757 28.3617 22.5148 28.3617 20.9657C28.3617 17.1817 25.2851 14.1029 21.5011 14.1029C17.7171 14.1029 14.6383 17.1817 14.6383 20.9657C14.6383 22.5115 15.1457 23.9735 16.1067 25.1947C16.3336 25.485 16.5819 25.7699 16.8453 26.0741C17.7515 27.1265 18.8749 28.4305 19.3285 30.0871C19.3952 30.3461 19.4726 30.7407 19.4812 31.548Z" fill="#FCBB14"/>
<path d="M24.452 36.1071H18.4986C17.9557 36.1071 17.5182 35.6674 17.5182 35.1245C17.5182 34.5827 17.9557 34.1452 18.4986 34.1452H24.452C24.9938 34.1452 25.4313 34.5827 25.4313 35.1245C25.4313 35.6674 24.9938 36.1071 24.452 36.1071Z" fill="#FCBB14"/>
<path d="M22.9642 38.6999H19.9875C19.4446 38.6999 19.0049 38.2603 19.0049 37.7196C19.0049 37.1778 19.4446 36.737 19.9875 36.737H22.9642C23.5038 36.737 23.9446 37.1778 23.9446 37.7196C23.9446 38.2603 23.5038 38.6999 22.9642 38.6999Z" fill="#FCBB14"/>
<path d="M37.1864 21.9461H33.2648C32.723 21.9461 32.2823 21.5086 32.2823 20.9657C32.2823 20.4239 32.723 19.9853 33.2648 19.9853H37.1864C37.7282 19.9853 38.1657 20.4239 38.1657 20.9657C38.1657 21.5086 37.7282 21.9461 37.1864 21.9461Z" fill="#FCBB14"/>
<path d="M9.73627 21.9461H5.8136C5.2718 21.9461 4.83427 21.5086 4.83427 20.9657C4.83427 20.4239 5.2718 19.9853 5.8136 19.9853H9.7352C10.277 19.9853 10.7177 20.4239 10.7177 20.9657C10.7188 21.5086 10.2781 21.9461 9.73627 21.9461Z" fill="#FCBB14"/>
<path d="M21.5 10.1845C20.9571 10.1845 20.5175 9.74701 20.5175 9.20414V5.28039C20.5175 4.73966 20.9571 4.29999 21.5 4.29999C22.0429 4.29999 22.4804 4.73966 22.4804 5.28039V9.20306C22.4804 9.74594 22.0429 10.1845 21.5 10.1845Z" fill="#FCBB14"/>
<path d="M32.5875 33.038C32.3381 33.038 32.0877 32.9423 31.8953 32.7499L29.1228 29.9764C28.7401 29.5948 28.7401 28.9723 29.1228 28.5886C29.5066 28.2059 30.1269 28.208 30.5096 28.5907L33.282 31.3631C33.6658 31.7469 33.6658 32.3693 33.282 32.752C33.0907 32.9445 32.8412 33.038 32.5875 33.038Z" fill="#FCBB14"/>
<path d="M13.1795 13.6299C12.9301 13.6299 12.6785 13.5342 12.485 13.3418L9.71477 10.5704C9.331 10.1867 9.331 9.56423 9.71477 9.18046C10.0985 8.79776 10.7188 8.79776 11.1015 9.18046L13.8739 11.9529C14.2577 12.3356 14.2577 12.9591 13.8739 13.3418C13.6826 13.5342 13.4321 13.6299 13.1795 13.6299Z" fill="#FCBB14"/>
<path d="M10.4081 33.038C10.1577 33.038 9.9072 32.9444 9.71477 32.752C9.331 32.3693 9.331 31.7469 9.71477 31.3631L12.4893 28.5885C12.8699 28.2058 13.4902 28.2058 13.8739 28.5885C14.2577 28.9723 14.2577 29.5947 13.8739 29.9785L11.1015 32.752C10.9091 32.9434 10.6597 33.038 10.4081 33.038Z" fill="#FCBB14"/>
<path d="M29.8184 13.6299C29.5679 13.6299 29.3174 13.5342 29.1239 13.3418C28.7433 12.9591 28.7433 12.3378 29.1239 11.9551L31.8963 9.18263C32.2769 8.79993 32.9014 8.79778 33.2831 9.18048C33.6668 9.56426 33.6668 10.1845 33.2831 10.5683L30.5128 13.3397C30.3214 13.5321 30.071 13.6299 29.8184 13.6299Z" fill="#FCBB14"/>
</svg>
